<?xml version="1.0" standalone="no"?><!DOCTYPE svg PUBLIC "-//W3C//DTD SVG 1.1//EN" "http://www.w3.org/Graphics/SVG/1.1/DTD/svg11.dtd"><svg t="1741062864908" class="icon" viewBox="0 0 1024 1024" version="1.1" xmlns="http://www.w3.org/2000/svg" p-id="13507" xmlns:xlink="http://www.w3.org/1999/xlink" width="200" height="200"><path d="M129.5 391.8c-38.5 0-69.7-31.3-69.7-69.7s31.3-69.7 69.7-69.7 69.7 31.3 69.7 69.7-31.2 69.7-69.7 69.7z m0-93c-12.8 0-23.2 10.4-23.2 23.2 0 12.8 10.4 23.2 23.2 23.2s23.2-10.4 23.2-23.2c0.1-12.7-10.4-23.2-23.2-23.2zM129.5 544c-38.5 0-69.7-31.3-69.7-69.7s31.3-69.7 69.7-69.7 69.7 31.3 69.7 69.7S168 544 129.5 544z m0-92.9c-12.8 0-23.2 10.4-23.2 23.2 0 12.8 10.4 23.2 23.2 23.2s23.2-10.4 23.2-23.2c0.1-12.8-10.4-23.2-23.2-23.2zM129.5 804.3c-38.5 0-69.7-31.3-69.7-69.7 0-38.5 31.3-69.7 69.7-69.7s69.7 31.3 69.7 69.7c0.1 38.4-31.2 69.7-69.7 69.7z m0-93c-12.8 0-23.2 10.4-23.2 23.2s10.4 23.2 23.2 23.2 23.2-10.4 23.2-23.2-10.4-23.2-23.2-23.2zM893.2 391.8c-38.5 0-69.7-31.3-69.7-69.7s31.3-69.7 69.7-69.7 69.7 31.3 69.7 69.7-31.3 69.7-69.7 69.7z m0-93c-12.8 0-23.2 10.4-23.2 23.2 0 12.8 10.4 23.2 23.2 23.2s23.2-10.4 23.2-23.2c0-12.7-10.4-23.2-23.2-23.2zM893.2 544c-38.5 0-69.7-31.3-69.7-69.7s31.3-69.7 69.7-69.7 69.7 31.3 69.7 69.7-31.3 69.7-69.7 69.7z m0-92.9c-12.8 0-23.2 10.4-23.2 23.2 0 12.8 10.4 23.2 23.2 23.2s23.2-10.4 23.2-23.2-10.4-23.2-23.2-23.2zM893.2 804.3c-38.5 0-69.7-31.3-69.7-69.7 0-38.5 31.3-69.7 69.7-69.7s69.7 31.3 69.7 69.7-31.3 69.7-69.7 69.7z m0-93c-12.8 0-23.2 10.4-23.2 23.2s10.4 23.2 23.2 23.2 23.2-10.4 23.2-23.2-10.4-23.2-23.2-23.2zM508.9 205.3c-38.5 0-69.7-31.3-69.7-69.7s31.3-69.7 69.7-69.7 69.7 31.3 69.7 69.7-31.2 69.7-69.7 69.7z m0-93c-12.8 0-23.2 10.4-23.2 23.2s10.4 23.2 23.2 23.2 23.2-10.4 23.2-23.2-10.4-23.2-23.2-23.2zM508.9 387.5c-38.5 0-69.7-31.3-69.7-69.7s31.3-69.7 69.7-69.7 69.7 31.3 69.7 69.7-31.2 69.7-69.7 69.7z m0-93c-12.8 0-23.2 10.4-23.2 23.2s10.4 23.2 23.2 23.2 23.2-10.4 23.2-23.2-10.4-23.2-23.2-23.2zM508.9 574.1c-38.5 0-69.7-31.3-69.7-69.7 0-38.5 31.3-69.7 69.7-69.7s69.7 31.3 69.7 69.7c0.1 38.4-31.2 69.7-69.7 69.7z m0-93c-12.8 0-23.2 10.4-23.2 23.2s10.4 23.2 23.2 23.2 23.2-10.4 23.2-23.2-10.4-23.2-23.2-23.2zM508.9 953c-38.5 0-69.7-31.3-69.7-69.7s31.3-69.7 69.7-69.7 69.7 31.3 69.7 69.7-31.2 69.7-69.7 69.7z m0-93c-12.8 0-23.2 10.4-23.2 23.2s10.4 23.2 23.2 23.2 23.2-10.4 23.2-23.2-10.4-23.2-23.2-23.2z" p-id="13508"></path><path d="M177.205 283.658L450.537 115.9l12.555 20.455-273.333 167.758zM189.3 307.5h268.5v24H189.3zM166.075 355.05l11.65-20.983 292.978 162.658-11.65 20.983z" p-id="13509"></path><path d="M180.896 488.044l2.427-23.878 270.513 27.489-2.426 23.878z" p-id="13510"></path><path d="M163.572 496.127l19.493-14L462.35 871.01l-19.493 13.999z" p-id="13511"></path><path d="M456.9 903.2L158.5 740.3l272.7-244.9 16 17.9-247.4 222.2 268.6 146.6z" p-id="13512"></path><path d="M184.2 728.6l-21.7-10.2L400.7 212 184.9 473l-18.5-15.3 268.2-324.4c4.4-5.3 12-6.5 17.8-2.8s7.9 11.1 5 17.3L184.2 728.6zM558.376 130.677l12.554-20.455L844.263 277.98l-12.554 20.455zM563.7 301.8h268.5v24H563.7zM550.758 491.04l292.978-162.657 11.65 20.983-292.978 162.658z" p-id="13513"></path><path d="M567.799 486.017l270.513-27.489 2.426 23.878-270.513 27.49z" p-id="13514"></path><path d="M558.955 865.469l279.284-388.882 19.493 14-279.284 388.881z" p-id="13515"></path><path d="M564.6 897.6l298.3-162.9-272.6-244.9-16 17.8 247.4 222.3-268.6 146.6z" p-id="13516"></path><path d="M837.2 722.9l21.7-10.2-238.1-506.4 215.8 261 18.5-15.3-268.2-324.3c-4.4-5.3-12-6.5-17.8-2.8s-7.9 11.1-5 17.3l273.1 580.7z" p-id="13517"></path></svg>